<?xml version="1.0" encoding="UTF-8"?>
<svg version="1.1" xmlns="http://www.w3.org/2000/svg" width="512" height="512">
<path d="M0 0 C89.76 0 179.52 0 272 0 C272 129.03 272 258.06 272 391 C268.25978409 389.50391364 265.44046253 388.15892382 262.10546875 386.05078125 C260.69104492 385.16132812 260.69104492 385.16132812 259.24804688 384.25390625 C258.23806641 383.61324219 257.22808594 382.97257812 256.1875 382.3125 C254.01439037 380.9439033 251.84121138 379.57541674 249.66796875 378.20703125 C248.00386963 377.15636475 248.00386963 377.15636475 246.30615234 376.08447266 C241.21392244 372.87390856 236.10672538 369.68743617 231 366.5 C228.99991758 365.25013188 226.99991783 364.00013146 225 362.75 C224.01 362.13125 223.02 361.5125 222 360.875 C213 355.25 213 355.25 209.99926758 353.37451172 C208.00174557 352.12608079 206.00418705 350.87770827 204.0065918 349.62939453 C197.95116649 345.84518565 191.89701876 342.05894573 185.84423828 338.27050781 C183.83712257 337.01561601 181.82899759 335.76233689 179.81982422 334.51074219 C174.9205836 331.45870331 170.03527728 328.38843597 165.17578125 325.2734375 C163.77332153 324.38325928 163.77332153 324.38325928 162.3425293 323.47509766 C160.59705491 322.36706406 158.85709944 321.25026114 157.12426758 320.12255859 C148.73123525 314.82574418 139.81643526 311.42494685 129.85913086 313.43139648 C122.26748875 315.47337414 116.14930344 319.23043542 109.5625 323.4375 C108.40706079 324.1637111 107.25096371 324.88887648 106.09423828 325.61303711 C103.78682757 327.06045798 101.48379749 328.51443203 99.18505859 329.97558594 C96.4363698 331.72264462 93.68288124 333.46157559 90.92578125 335.1953125 C87.88575075 337.10900077 84.84969654 339.02877261 81.81640625 340.953125 C76.32986676 344.42988014 70.82179452 347.87195309 65.3125 351.3125 C64.30300293 351.94293213 63.29350586 352.57336426 62.25341797 353.22290039 C60.19587228 354.5076015 58.13825468 355.79218745 56.08056641 357.07666016 C52.04761885 359.59461552 48.01584252 362.11444141 43.984375 364.63476562 C42.00427192 365.87233005 40.02380651 367.10931496 38.04296875 368.34570312 C32.79803039 371.62033898 27.56039504 374.90598588 22.33203125 378.20703125 C20.69524414 379.23763672 20.69524414 379.23763672 19.02539062 380.2890625 C16.9321509 381.60735816 14.8408997 382.92881825 12.75195312 384.25390625 C11.80900391 384.846875 10.86605469 385.43984375 9.89453125 386.05078125 C9.06800049 386.57325439 8.24146973 387.09572754 7.38989258 387.6340332 C5 389 5 389 0 391 C0 261.97 0 132.94 0 0 Z " fill="#FFCD00" transform="translate(120,48)"/>
<path d="M0 0 C1.08164983 -0.00445784 2.16329967 -0.00891569 3.27772677 -0.01350862 C4.46544818 -0.01332426 5.65316959 -0.01313989 6.87688255 -0.01294994 C8.77027746 -0.01846498 8.77027746 -0.01846498 10.70192277 -0.02409142 C14.20806872 -0.03410212 17.71419754 -0.03782672 21.22035575 -0.04048073 C25.00102384 -0.04438655 28.78167842 -0.0539647 32.56233788 -0.0626936 C41.69390555 -0.0824502 50.82547431 -0.09252321 59.95705801 -0.10142139 C64.25834034 -0.10580562 68.55962143 -0.11117208 72.86090279 -0.11641026 C87.16116709 -0.13342176 101.46143063 -0.14791565 115.76170349 -0.155159 C119.4721648 -0.15706886 123.1826261 -0.1589892 126.89308739 -0.16094494 C127.81529286 -0.16142868 128.73749832 -0.16191242 129.68764941 -0.16241082 C144.62482046 -0.17071009 159.5619114 -0.19604562 174.49904747 -0.22852562 C189.83801233 -0.26160718 205.17693649 -0.27960875 220.51593721 -0.28280324 C229.12686911 -0.28496732 237.7376842 -0.29370108 246.34858131 -0.31926441 C253.68243684 -0.34098641 261.01614717 -0.34901448 268.35003121 -0.33929763 C272.09005353 -0.33475724 275.82977635 -0.33662361 279.56975746 -0.35605907 C283.63002473 -0.37697617 287.68962973 -0.36669172 291.74992943 -0.35352612 C292.92426651 -0.36449536 294.09860358 -0.37546461 295.30852664 -0.38676625 C306.02360109 -0.30297403 314.79537734 2.75965509 322.69435692 10.13422108 C331.81492432 19.84084903 333.85795144 30.0924785 333.82578468 43.18564129 C333.82783732 43.97105047 333.82988995 44.75645966 333.83200479 45.56566912 C333.83765566 48.19537772 333.83621991 50.82503362 333.83479881 53.4547472 C333.83738353 55.36003273 333.84039698 57.26531772 333.84380221 59.17060196 C333.85186264 64.40494081 333.85366125 69.63926594 333.85439968 74.87361026 C333.85625184 80.51925095 333.86379988 86.16488454 333.8705349 91.81052113 C333.88411074 104.15329151 333.89014144 116.49605864 333.89454556 128.83883524 C333.89730857 136.54455827 333.90154597 144.25028005 333.90604973 151.95600224 C333.91824015 173.28893128 333.92857611 194.6218588 333.93192482 215.95479107 C333.93214645 217.33360571 333.93236824 218.71242035 333.93259017 220.09123499 C333.93281081 221.47334624 333.93303129 222.85545749 333.93325162 224.23756874 C333.93369417 227.01024842 333.93414128 229.78292811 333.93459129 232.5556078 C333.93475538 233.58679823 333.93475538 233.58679823 333.93492278 234.63882079 C333.93855458 256.93698237 333.95448097 279.23511146 333.97778166 301.53326059 C334.00237871 325.11514111 334.01609083 348.69699649 334.01729274 372.27889168 C334.01820994 385.13130956 334.02397393 397.98368488 334.04211235 410.83609104 C334.05749922 421.77732455 334.06264204 432.71850234 334.05437425 443.65974461 C334.0504631 449.24258482 334.05142019 454.82531277 334.06543159 460.40813923 C334.07814202 465.51926473 334.07699809 470.63019325 334.06484088 475.74131836 C334.06287897 477.58984571 334.06598508 479.43838687 334.07468525 481.28689478 C334.16739974 502.31797591 334.16739974 502.31797591 329.2424233 507.72963321 C324.51460533 511.8528012 320.72947163 512.97105895 314.54982567 512.91937733 C306.59158504 511.29870218 299.96300755 506.21586096 293.25832176 501.81439686 C290.11200852 499.75260598 286.92722208 497.75667725 283.73879051 495.76093006 C281.39398744 494.29012626 279.05714835 492.80732928 276.72170067 491.32172108 C271.16760684 487.79362804 265.58831571 484.30631052 260.00685692 480.82172108 C258.99784325 480.19161121 257.98882957 479.56150135 256.94923973 478.91229725 C254.89121508 477.62725569 252.83310919 476.34234424 250.77492332 475.05756092 C245.74689205 471.91832884 240.72070351 468.77614957 235.69435692 465.63422108 C233.69436607 464.38420644 231.69436606 463.13420645 229.69435692 461.88422108 C193.69435692 439.38422108 193.69435692 439.38422108 190.68996239 437.50531483 C188.7060011 436.26610706 186.72066548 435.02909666 184.7339077 433.79437733 C179.47466205 430.52172718 174.25034975 427.20513139 169.06154442 423.82172108 C167.97486473 423.12111561 166.88818504 422.42051014 165.76857567 421.6986742 C163.68144546 420.35185086 161.60281966 418.99172881 159.53420067 417.61664295 C158.59447411 417.01400623 157.65474754 416.41136951 156.68654442 415.79047108 C155.86525047 415.25228748 155.04395653 414.71410389 154.19777489 414.1596117 C150.9079467 412.8121104 149.08992566 413.18549203 145.69435692 414.13422108 C143.33667924 415.25661157 143.33667924 415.25661157 141.13966942 416.76703358 C140.29033836 417.31802723 139.44100731 417.86902088 138.56593895 418.43671131 C137.20638084 419.33885365 137.20638084 419.33885365 135.81935692 420.25922108 C133.84088347 421.54544427 131.86169186 422.83056332 129.88185692 424.11468983 C128.35045067 425.1131493 128.35045067 425.1131493 126.78810692 426.13177967 C121.83531399 429.33749366 116.82822711 432.45463418 111.81935692 435.57172108 C109.80106997 436.83074303 107.78284112 438.08985813 105.76466942 439.34906483 C104.76210106 439.97409901 103.7595327 440.59913319 102.72658348 441.2431078 C97.71345151 444.36965532 92.70408449 447.50222269 87.69435692 450.63422108 C85.69437521 451.88425034 83.6943752 453.13425033 81.69435692 454.38422108 C80.70435692 455.00297108 79.71435692 455.62172108 78.69435692 456.25922108 C67.69435692 463.13422108 56.69435692 470.00922108 45.69435692 476.88422108 C44.70363182 477.50345448 43.71290672 478.12268787 42.69215965 478.76068592 C40.69959367 480.00597881 38.70691853 481.25109706 36.71413231 482.49603748 C30.55035508 486.34707474 24.39079989 490.20475714 18.23439598 494.06757069 C15.20896208 495.96096664 12.17672404 497.84306013 9.14357567 499.72406483 C5.81725063 501.79028749 2.52853531 503.89472254 -0.72361183 506.07562733 C-7.25321008 510.38267563 -12.64872877 513.40210622 -20.77829933 512.69281483 C-25.93312091 511.55349568 -28.42161167 509.2571799 -31.61814308 505.19672108 C-34.46265374 500.03446099 -34.45069131 495.12375941 -34.43427753 489.33448315 C-34.43603057 488.55198084 -34.43778361 487.76947854 -34.43958977 486.96326405 C-34.44425554 484.33137919 -34.44178277 481.69954943 -34.43935585 479.06766224 C-34.44122354 477.16552835 -34.44352407 475.26339485 -34.44622117 473.36126196 C-34.45235094 468.126264 -34.45220419 462.89128197 -34.4510268 457.65628123 C-34.45082308 452.01329504 -34.45633879 446.37031401 -34.46108437 440.72733021 C-34.46939831 429.66782835 -34.47213956 418.60833182 -34.47269674 407.5488271 C-34.47317162 398.55924111 -34.47522497 389.56965688 -34.47839737 380.58007145 C-34.48577256 359.24722692 -34.49192196 337.91438404 -34.49139881 316.5815382 C-34.49138323 315.89916424 -34.49136765 315.21679029 -34.4913516 314.51373833 C-34.4912685 311.05517428 -34.49116945 307.59661024 -34.4910669 304.13804619 C-34.49104695 303.45116293 -34.491027 302.76427968 -34.49100646 302.05658178 C-34.49096602 300.66753504 -34.49092422 299.2784883 -34.49088106 297.88944157 C-34.49026851 276.28531837 -34.49777079 254.68121087 -34.51145363 233.07709217 C-34.52682025 208.80441494 -34.5354068 184.53175123 -34.53449041 160.25906813 C-34.53415832 147.40768542 -34.53691026 134.55632041 -34.54766846 121.70494175 C-34.55677059 110.76152887 -34.55895111 99.81814172 -34.55215903 88.8747267 C-34.54889218 83.29167657 -34.54884312 77.70867582 -34.55751228 72.12563038 C-34.56537099 67.01188872 -34.56395221 61.89823563 -34.55522815 56.78449614 C-34.55369177 54.9372208 -34.55551454 53.08993887 -34.56108823 51.2426713 C-34.60658774 35.0894798 -34.11408916 21.67133522 -22.66111183 9.25140858 C-16.13413341 3.38470492 -8.73796258 0.0167191 0 0 Z M-0.30564308 34.13422108 C-1.79200062 37.10693615 -1.42965616 39.77724875 -1.42869091 43.09578609 C-1.42984475 43.82409447 -1.4309986 44.55240284 -1.43218741 45.30278116 C-1.43485584 47.76827418 -1.43033005 50.23370323 -1.4258976 52.699193 C-1.42633325 54.47458342 -1.42720806 56.24997379 -1.42848676 58.0253638 C-1.43073284 62.92352999 -1.42670891 67.82167449 -1.4217087 72.7198379 C-1.417406 77.99456232 -1.4188505 83.26928544 -1.41961098 88.54401112 C-1.42013633 97.68931972 -1.41698838 106.83462121 -1.41137314 115.97992802 C-1.40325962 129.20264507 -1.40064307 142.42535867 -1.39938515 155.64807795 C-1.39719439 177.09902735 -1.39053368 198.54997296 -1.38108253 220.0009203 C-1.37190902 240.84336802 -1.36482789 261.68581471 -1.36057472 282.52826405 C-1.360312 283.8121467 -1.36004928 285.09602935 -1.35977859 286.41881754 C-1.35847359 292.8594269 -1.35720987 299.30003627 -1.35596669 305.74064565 C-1.34559335 359.20517341 -1.3279744 412.66969706 -1.30564308 466.13422108 C-0.01918035 465.49591512 1.26672365 464.85648299 2.55238914 464.21657276 C3.26853638 463.86060929 3.98468361 463.50464582 4.72253227 463.13789558 C6.81728834 462.071648 8.81065703 460.91628712 10.78810692 459.64593983 C11.4953994 459.19500965 12.20269188 458.74407948 12.93141747 458.27948475 C13.67818748 457.79842274 14.4249575 457.31736073 15.19435692 456.82172108 C16.87756045 455.74819234 18.56117388 454.67530608 20.24513817 453.60297108 C21.13024071 453.0383617 22.01534325 452.47375233 22.92726707 451.89203358 C27.72873791 448.84186682 32.55585785 445.8328715 37.38185692 442.82172108 C39.42743213 441.544381 41.47300502 440.26703721 43.51857567 438.98968983 C44.53999657 438.35208729 45.56141747 437.71448475 46.61379051 437.05756092 C51.64182178 433.91832884 56.66801032 430.77614957 61.69435692 427.63422108 C63.69434777 426.38420644 65.69434778 425.13420645 67.69435692 423.88422108 C68.68435692 423.26547108 69.67435692 422.64672108 70.69435692 422.00922108 C73.69435692 420.13422108 76.69435692 418.25922108 79.69435692 416.38422108 C81.17971947 415.45585438 81.17971947 415.45585438 82.69508934 414.5087328 C84.69261135 413.26030186 86.69016987 412.01192935 88.68776512 410.76361561 C93.72598125 407.6150899 98.7635342 404.46551215 103.79982567 401.31390858 C108.77933856 398.19817785 113.76091627 395.08577544 118.74416161 391.97601795 C120.7428035 390.72827263 122.74083214 389.47954456 124.73830223 388.2299242 C127.65924425 386.40327508 130.58271906 384.58074859 133.50685692 382.75922108 C134.39075096 382.2054076 135.274645 381.65159412 136.18532372 381.08099842 C136.99912498 380.57520252 137.81292625 380.06940662 138.65138817 379.54828358 C139.36270897 379.10436268 140.07402977 378.66044178 140.80690575 378.20306873 C144.81212257 375.93494827 148.16729438 375.83241691 152.69435692 376.13422108 C158.436852 378.27969088 163.53154341 381.26634388 168.75685692 384.44672108 C169.62536278 384.97161121 170.49386864 385.49650135 171.38869286 386.03729725 C179.67076296 391.06886951 187.83730563 396.27783874 195.99904442 401.50140858 C201.83154902 405.2305851 207.69621334 408.90696723 213.56935692 412.57172108 C214.56676903 413.19409657 215.56418114 413.81647205 216.59181786 414.45770741 C218.61511029 415.71974013 220.63854808 416.98153987 222.66213036 418.2431078 C227.67526233 421.36965532 232.68462935 424.50222269 237.69435692 427.63422108 C239.69433863 428.88425034 241.69433863 430.13425033 243.69435692 431.38422108 C255.69435692 438.88422108 255.69435692 438.88422108 258.69948387 440.76263905 C260.68213762 442.00165621 262.66504423 443.24026885 264.64821434 444.47845936 C269.347912 447.41339945 274.04484414 450.35249907 278.73296165 453.30591297 C280.41023 454.36229539 282.08842025 455.4172136 283.76662254 456.4721117 C285.88542319 457.80418468 288.0026782 459.13872015 290.11818504 460.47601795 C291.54227684 461.37030506 291.54227684 461.37030506 292.99513817 462.28265858 C293.83214256 462.81036854 294.66914696 463.3380785 295.53151512 463.88177967 C297.75527812 465.26660839 297.75527812 465.26660839 300.69435692 466.13422108 C300.74009445 411.40583214 300.77535581 356.67744512 300.79648758 301.94904084 C300.79898911 295.49375909 300.80157774 289.03847738 300.8042202 282.58319569 C300.80474482 281.29801827 300.80526944 280.01284085 300.80580996 278.68871865 C300.81452213 257.85559127 300.83029656 237.02247488 300.84866251 216.18935402 C300.86733899 194.8264558 300.87846886 173.46356334 300.88253391 152.10065728 C300.88528365 138.90940162 300.89398098 125.71817701 300.91018985 112.52693091 C300.92072897 103.49185545 300.92396455 94.45679615 300.92135967 85.42171498 C300.92007357 80.2022102 300.92210052 74.98275986 300.93276787 69.76326466 C300.94245076 64.99083792 300.94302436 60.21850259 300.93615471 55.44607178 C300.9353048 53.71386114 300.93788378 51.98164495 300.94412328 50.24944534 C300.95207863 47.90579437 300.94786681 45.56247907 300.94045258 43.21883392 C300.94159174 41.26118576 300.94159174 41.26118576 300.94275391 39.26398915 C300.93707045 35.9705651 300.93707045 35.9705651 298.69435692 33.13422108 C295.74614443 32.15148358 293.84844569 32.00803562 290.77611446 32.00558662 C289.75545661 32.00236218 288.73479875 31.99913773 287.68321186 31.99581558 C286.55852196 31.99736418 285.43383206 31.99891278 284.27506065 32.00050831 C283.08292235 31.99824275 281.89078405 31.9959772 280.66252035 31.99364299 C277.34774339 31.98839601 274.03302054 31.9876601 270.71824324 31.98883736 C267.14558497 31.98904104 263.57293487 31.9835258 260.00028038 31.97877979 C252.99888412 31.97046573 245.99749627 31.96772462 238.99609549 31.96716741 C233.3068402 31.96669265 227.61758769 31.96463987 221.92833328 31.96146679 C205.80776068 31.95265844 189.68719473 31.94804774 173.5666197 31.94879726 C172.6971641 31.94883722 171.82770849 31.94887718 170.93190575 31.94891834 C169.6261351 31.94897966 169.6261351 31.94897966 168.29398524 31.94904222 C154.18043952 31.94944883 140.06692045 31.93987614 125.95338244 31.92577998 C111.47102732 31.91142925 96.98868522 31.90450906 82.5063228 31.90537375 C74.3718007 31.90570616 66.23730655 31.90294008 58.10279083 31.8921957 C51.1779294 31.88310787 44.2531086 31.88090129 37.3282438 31.88770512 C33.79360887 31.89097895 30.25905196 31.89099609 26.72442436 31.88235188 C22.89645866 31.87308634 19.06860801 31.87924033 15.24063683 31.88698292 C14.11817765 31.88183935 12.99571847 31.87669579 11.83924538 31.87139636 C10.30434697 31.87829456 10.30434697 31.87829456 8.73844051 31.88533211 C7.85455892 31.88511474 6.97067733 31.88489737 6.06001145 31.88467342 C3.48308009 32.1565082 1.87473884 32.74974843 -0.30564308 34.13422108 Z " fill="#FFCD00" transform="translate(106.30564308166504,-0.13422107696533203)"/>
</svg>
